G75*
%MOIN*%
%OFA0B0*%
%FSLAX24Y24*%
%IPPOS*%
%LPD*%
%AMOC8*
5,1,8,0,0,1.08239X$1,22.5*
%
%ADD10C,0.0000*%
%ADD11C,0.0050*%
D10*
X003250Y002550D02*
X003250Y005050D01*
X005750Y005050D01*
X007550Y006850D01*
X007550Y014750D01*
X005750Y016550D01*
X003250Y016550D01*
X003250Y021235D01*
X030809Y021235D01*
X030809Y002550D01*
X003250Y002550D01*
X010463Y006050D02*
X010465Y006106D01*
X010471Y006161D01*
X010481Y006215D01*
X010494Y006269D01*
X010512Y006322D01*
X010533Y006373D01*
X010557Y006423D01*
X010585Y006471D01*
X010617Y006517D01*
X010651Y006561D01*
X010689Y006602D01*
X010729Y006640D01*
X010772Y006675D01*
X010817Y006707D01*
X010865Y006736D01*
X010914Y006762D01*
X010965Y006784D01*
X011017Y006802D01*
X011071Y006816D01*
X011126Y006827D01*
X011181Y006834D01*
X011236Y006837D01*
X011292Y006836D01*
X011347Y006831D01*
X011402Y006822D01*
X011456Y006810D01*
X011509Y006793D01*
X011561Y006773D01*
X011611Y006749D01*
X011659Y006722D01*
X011706Y006692D01*
X011750Y006658D01*
X011792Y006621D01*
X011830Y006581D01*
X011867Y006539D01*
X011900Y006494D01*
X011929Y006448D01*
X011956Y006399D01*
X011978Y006348D01*
X011998Y006296D01*
X012013Y006242D01*
X012025Y006188D01*
X012033Y006133D01*
X012037Y006078D01*
X012037Y006022D01*
X012033Y005967D01*
X012025Y005912D01*
X012013Y005858D01*
X011998Y005804D01*
X011978Y005752D01*
X011956Y005701D01*
X011929Y005652D01*
X011900Y005606D01*
X011867Y005561D01*
X011830Y005519D01*
X011792Y005479D01*
X011750Y005442D01*
X011706Y005408D01*
X011659Y005378D01*
X011611Y005351D01*
X011561Y005327D01*
X011509Y005307D01*
X011456Y005290D01*
X011402Y005278D01*
X011347Y005269D01*
X011292Y005264D01*
X011236Y005263D01*
X011181Y005266D01*
X011126Y005273D01*
X011071Y005284D01*
X011017Y005298D01*
X010965Y005316D01*
X010914Y005338D01*
X010865Y005364D01*
X010817Y005393D01*
X010772Y005425D01*
X010729Y005460D01*
X010689Y005498D01*
X010651Y005539D01*
X010617Y005583D01*
X010585Y005629D01*
X010557Y005677D01*
X010533Y005727D01*
X010512Y005778D01*
X010494Y005831D01*
X010481Y005885D01*
X010471Y005939D01*
X010465Y005994D01*
X010463Y006050D01*
X022663Y006250D02*
X022665Y006306D01*
X022671Y006361D01*
X022681Y006415D01*
X022694Y006469D01*
X022712Y006522D01*
X022733Y006573D01*
X022757Y006623D01*
X022785Y006671D01*
X022817Y006717D01*
X022851Y006761D01*
X022889Y006802D01*
X022929Y006840D01*
X022972Y006875D01*
X023017Y006907D01*
X023065Y006936D01*
X023114Y006962D01*
X023165Y006984D01*
X023217Y007002D01*
X023271Y007016D01*
X023326Y007027D01*
X023381Y007034D01*
X023436Y007037D01*
X023492Y007036D01*
X023547Y007031D01*
X023602Y007022D01*
X023656Y007010D01*
X023709Y006993D01*
X023761Y006973D01*
X023811Y006949D01*
X023859Y006922D01*
X023906Y006892D01*
X023950Y006858D01*
X023992Y006821D01*
X024030Y006781D01*
X024067Y006739D01*
X024100Y006694D01*
X024129Y006648D01*
X024156Y006599D01*
X024178Y006548D01*
X024198Y006496D01*
X024213Y006442D01*
X024225Y006388D01*
X024233Y006333D01*
X024237Y006278D01*
X024237Y006222D01*
X024233Y006167D01*
X024225Y006112D01*
X024213Y006058D01*
X024198Y006004D01*
X024178Y005952D01*
X024156Y005901D01*
X024129Y005852D01*
X024100Y005806D01*
X024067Y005761D01*
X024030Y005719D01*
X023992Y005679D01*
X023950Y005642D01*
X023906Y005608D01*
X023859Y005578D01*
X023811Y005551D01*
X023761Y005527D01*
X023709Y005507D01*
X023656Y005490D01*
X023602Y005478D01*
X023547Y005469D01*
X023492Y005464D01*
X023436Y005463D01*
X023381Y005466D01*
X023326Y005473D01*
X023271Y005484D01*
X023217Y005498D01*
X023165Y005516D01*
X023114Y005538D01*
X023065Y005564D01*
X023017Y005593D01*
X022972Y005625D01*
X022929Y005660D01*
X022889Y005698D01*
X022851Y005739D01*
X022817Y005783D01*
X022785Y005829D01*
X022757Y005877D01*
X022733Y005927D01*
X022712Y005978D01*
X022694Y006031D01*
X022681Y006085D01*
X022671Y006139D01*
X022665Y006194D01*
X022663Y006250D01*
X022663Y019450D02*
X022665Y019506D01*
X022671Y019561D01*
X022681Y019615D01*
X022694Y019669D01*
X022712Y019722D01*
X022733Y019773D01*
X022757Y019823D01*
X022785Y019871D01*
X022817Y019917D01*
X022851Y019961D01*
X022889Y020002D01*
X022929Y020040D01*
X022972Y020075D01*
X023017Y020107D01*
X023065Y020136D01*
X023114Y020162D01*
X023165Y020184D01*
X023217Y020202D01*
X023271Y020216D01*
X023326Y020227D01*
X023381Y020234D01*
X023436Y020237D01*
X023492Y020236D01*
X023547Y020231D01*
X023602Y020222D01*
X023656Y020210D01*
X023709Y020193D01*
X023761Y020173D01*
X023811Y020149D01*
X023859Y020122D01*
X023906Y020092D01*
X023950Y020058D01*
X023992Y020021D01*
X024030Y019981D01*
X024067Y019939D01*
X024100Y019894D01*
X024129Y019848D01*
X024156Y019799D01*
X024178Y019748D01*
X024198Y019696D01*
X024213Y019642D01*
X024225Y019588D01*
X024233Y019533D01*
X024237Y019478D01*
X024237Y019422D01*
X024233Y019367D01*
X024225Y019312D01*
X024213Y019258D01*
X024198Y019204D01*
X024178Y019152D01*
X024156Y019101D01*
X024129Y019052D01*
X024100Y019006D01*
X024067Y018961D01*
X024030Y018919D01*
X023992Y018879D01*
X023950Y018842D01*
X023906Y018808D01*
X023859Y018778D01*
X023811Y018751D01*
X023761Y018727D01*
X023709Y018707D01*
X023656Y018690D01*
X023602Y018678D01*
X023547Y018669D01*
X023492Y018664D01*
X023436Y018663D01*
X023381Y018666D01*
X023326Y018673D01*
X023271Y018684D01*
X023217Y018698D01*
X023165Y018716D01*
X023114Y018738D01*
X023065Y018764D01*
X023017Y018793D01*
X022972Y018825D01*
X022929Y018860D01*
X022889Y018898D01*
X022851Y018939D01*
X022817Y018983D01*
X022785Y019029D01*
X022757Y019077D01*
X022733Y019127D01*
X022712Y019178D01*
X022694Y019231D01*
X022681Y019285D01*
X022671Y019339D01*
X022665Y019394D01*
X022663Y019450D01*
X008963Y019450D02*
X008965Y019506D01*
X008971Y019561D01*
X008981Y019615D01*
X008994Y019669D01*
X009012Y019722D01*
X009033Y019773D01*
X009057Y019823D01*
X009085Y019871D01*
X009117Y019917D01*
X009151Y019961D01*
X009189Y020002D01*
X009229Y020040D01*
X009272Y020075D01*
X009317Y020107D01*
X009365Y020136D01*
X009414Y020162D01*
X009465Y020184D01*
X009517Y020202D01*
X009571Y020216D01*
X009626Y020227D01*
X009681Y020234D01*
X009736Y020237D01*
X009792Y020236D01*
X009847Y020231D01*
X009902Y020222D01*
X009956Y020210D01*
X010009Y020193D01*
X010061Y020173D01*
X010111Y020149D01*
X010159Y020122D01*
X010206Y020092D01*
X010250Y020058D01*
X010292Y020021D01*
X010330Y019981D01*
X010367Y019939D01*
X010400Y019894D01*
X010429Y019848D01*
X010456Y019799D01*
X010478Y019748D01*
X010498Y019696D01*
X010513Y019642D01*
X010525Y019588D01*
X010533Y019533D01*
X010537Y019478D01*
X010537Y019422D01*
X010533Y019367D01*
X010525Y019312D01*
X010513Y019258D01*
X010498Y019204D01*
X010478Y019152D01*
X010456Y019101D01*
X010429Y019052D01*
X010400Y019006D01*
X010367Y018961D01*
X010330Y018919D01*
X010292Y018879D01*
X010250Y018842D01*
X010206Y018808D01*
X010159Y018778D01*
X010111Y018751D01*
X010061Y018727D01*
X010009Y018707D01*
X009956Y018690D01*
X009902Y018678D01*
X009847Y018669D01*
X009792Y018664D01*
X009736Y018663D01*
X009681Y018666D01*
X009626Y018673D01*
X009571Y018684D01*
X009517Y018698D01*
X009465Y018716D01*
X009414Y018738D01*
X009365Y018764D01*
X009317Y018793D01*
X009272Y018825D01*
X009229Y018860D01*
X009189Y018898D01*
X009151Y018939D01*
X009117Y018983D01*
X009085Y019029D01*
X009057Y019077D01*
X009033Y019127D01*
X009012Y019178D01*
X008994Y019231D01*
X008981Y019285D01*
X008971Y019339D01*
X008965Y019394D01*
X008963Y019450D01*
D11*
X022577Y013271D02*
X022577Y009350D01*
X023061Y008866D01*
X023077Y008850D02*
X024931Y007007D01*
X026191Y007007D01*
X026191Y005000D01*
X028238Y005000D01*
X028238Y007007D01*
X029892Y007007D01*
X029919Y007007D02*
X030746Y007007D01*
X030746Y015472D01*
X028254Y015472D01*
X028254Y017484D01*
X026199Y017484D01*
X026199Y015460D01*
X026183Y015464D02*
X024770Y015464D01*
X022577Y013271D01*
X023963Y011559D02*
X023963Y010594D01*
X023482Y011106D02*
X024447Y011106D01*
X022698Y011216D02*
X022700Y011342D01*
X022706Y011468D01*
X022716Y011593D01*
X022730Y011718D01*
X022748Y011843D01*
X022770Y011967D01*
X022796Y012090D01*
X022825Y012213D01*
X022859Y012334D01*
X022896Y012454D01*
X022937Y012573D01*
X022982Y012691D01*
X023031Y012807D01*
X023083Y012922D01*
X023139Y013035D01*
X023199Y013146D01*
X023262Y013255D01*
X023328Y013362D01*
X023398Y013467D01*
X023471Y013569D01*
X023547Y013669D01*
X023627Y013767D01*
X023709Y013862D01*
X023794Y013955D01*
X023883Y014045D01*
X023974Y014132D01*
X024068Y014216D01*
X024164Y014297D01*
X024263Y014374D01*
X024365Y014449D01*
X024468Y014520D01*
X024574Y014589D01*
X024683Y014653D01*
X024793Y014714D01*
X024904Y014772D01*
X025018Y014826D01*
X025134Y014877D01*
X025251Y014924D01*
X025369Y014967D01*
X025489Y015006D01*
X025609Y015041D01*
X025731Y015073D01*
X025854Y015101D01*
X025978Y015125D01*
X026102Y015145D01*
X026227Y015161D01*
X026352Y015173D01*
X026478Y015181D01*
X026604Y015185D01*
X026730Y015185D01*
X026856Y015181D01*
X026982Y015173D01*
X027107Y015161D01*
X027232Y015145D01*
X027356Y015125D01*
X027480Y015101D01*
X027603Y015073D01*
X027725Y015041D01*
X027845Y015006D01*
X027965Y014967D01*
X028083Y014924D01*
X028200Y014877D01*
X028316Y014826D01*
X028430Y014772D01*
X028541Y014714D01*
X028652Y014653D01*
X028760Y014589D01*
X028866Y014520D01*
X028969Y014449D01*
X029071Y014374D01*
X029170Y014297D01*
X029266Y014216D01*
X029360Y014132D01*
X029451Y014045D01*
X029540Y013955D01*
X029625Y013862D01*
X029707Y013767D01*
X029787Y013669D01*
X029863Y013569D01*
X029936Y013467D01*
X030006Y013362D01*
X030072Y013255D01*
X030135Y013146D01*
X030195Y013035D01*
X030251Y012922D01*
X030303Y012807D01*
X030352Y012691D01*
X030397Y012573D01*
X030438Y012454D01*
X030475Y012334D01*
X030509Y012213D01*
X030538Y012090D01*
X030564Y011967D01*
X030586Y011843D01*
X030604Y011718D01*
X030618Y011593D01*
X030628Y011468D01*
X030634Y011342D01*
X030636Y011216D01*
X030634Y011090D01*
X030628Y010964D01*
X030618Y010839D01*
X030604Y010714D01*
X030586Y010589D01*
X030564Y010465D01*
X030538Y010342D01*
X030509Y010219D01*
X030475Y010098D01*
X030438Y009978D01*
X030397Y009859D01*
X030352Y009741D01*
X030303Y009625D01*
X030251Y009510D01*
X030195Y009397D01*
X030135Y009286D01*
X030072Y009177D01*
X030006Y009070D01*
X029936Y008965D01*
X029863Y008863D01*
X029787Y008763D01*
X029707Y008665D01*
X029625Y008570D01*
X029540Y008477D01*
X029451Y008387D01*
X029360Y008300D01*
X029266Y008216D01*
X029170Y008135D01*
X029071Y008058D01*
X028969Y007983D01*
X028866Y007912D01*
X028760Y007843D01*
X028651Y007779D01*
X028541Y007718D01*
X028430Y007660D01*
X028316Y007606D01*
X028200Y007555D01*
X028083Y007508D01*
X027965Y007465D01*
X027845Y007426D01*
X027725Y007391D01*
X027603Y007359D01*
X027480Y007331D01*
X027356Y007307D01*
X027232Y007287D01*
X027107Y007271D01*
X026982Y007259D01*
X026856Y007251D01*
X026730Y007247D01*
X026604Y007247D01*
X026478Y007251D01*
X026352Y007259D01*
X026227Y007271D01*
X026102Y007287D01*
X025978Y007307D01*
X025854Y007331D01*
X025731Y007359D01*
X025609Y007391D01*
X025489Y007426D01*
X025369Y007465D01*
X025251Y007508D01*
X025134Y007555D01*
X025018Y007606D01*
X024904Y007660D01*
X024793Y007718D01*
X024682Y007779D01*
X024574Y007843D01*
X024468Y007912D01*
X024365Y007983D01*
X024263Y008058D01*
X024164Y008135D01*
X024068Y008216D01*
X023974Y008300D01*
X023883Y008387D01*
X023794Y008477D01*
X023709Y008570D01*
X023627Y008665D01*
X023547Y008763D01*
X023471Y008863D01*
X023398Y008965D01*
X023328Y009070D01*
X023262Y009177D01*
X023199Y009286D01*
X023139Y009397D01*
X023083Y009510D01*
X023031Y009625D01*
X022982Y009741D01*
X022937Y009859D01*
X022896Y009978D01*
X022859Y010098D01*
X022825Y010219D01*
X022796Y010342D01*
X022770Y010465D01*
X022748Y010589D01*
X022730Y010714D01*
X022716Y010839D01*
X022706Y010964D01*
X022700Y011090D01*
X022698Y011216D01*
M02*
