%
M48
M72
T01C0.0160
T02C0.0350
T03C0.0360
T04C0.0433
T05C0.1575
%
T01
X7150Y5450
X8850Y5050
X10150Y7050
X8750Y7050
X8250Y7050
X9350Y8950
X8750Y9250
X8250Y9250
X9950Y8950
X10300Y9400
X11050Y10850
X10700Y12100
X9800Y12100
X12950Y12750
X14850Y11450
X15450Y12050
X17700Y13200
X19450Y14150
X19500Y14700
X21000Y14700
X22000Y15450
X22700Y14700
X23950Y14650
X23950Y15150
X24950Y15600
X25300Y15900
X25750Y15750
X25800Y16700
X26600Y17750
X23600Y18000
X22700Y17500
X19050Y15850
X17850Y15850
X14800Y16700
X13700Y16700
X12250Y15050
X10750Y15050
X8850Y15150
X6800Y16500
X7700Y16900
X20900Y12235
X22550Y12250
X23800Y11900
X23000Y11400
X21900Y11200
X21450Y11150
X20600Y10800
X18350Y11600
X18500Y12000
X17850Y10050
X15450Y9850
X13850Y9850
X13250Y8950
X14550Y7050
X15550Y7150
X17750Y7150
X18750Y7450
X19850Y6550
X20850Y6550
X21250Y7450
X22400Y7400
X22332Y8432
X22300Y9000
X21300Y9000
X25350Y6650
X24400Y5200
X28700Y6500
X19850Y4750
X18750Y4750
X18750Y5950
X12750Y6750
X22900Y13300
X23800Y13300
X24600Y13700
X28600Y15700
X28100Y19500
X27100Y11200
T02
X8650Y5750
X14050Y5750
X14850Y5750
X15850Y5750
X16700Y5750
X17550Y5750
X17250Y7700
X17250Y8550
X17250Y9400
X17250Y10250
X17250Y11100
X17250Y13750
X18150Y13750
T03
X4250Y3850
X5250Y3850
X6250Y3850
X8250Y3850
X9250Y3850
X10250Y3850
X12250Y3850
X13250Y3850
X14250Y3850
X17200Y3800
X18200Y3800
X19200Y3800
X20200Y3800
X21200Y3800
X23200Y3800
X24200Y3800
X25200Y3800
X26200Y3800
X28700Y3800
X29700Y3800
T04
X21234Y19550
X19266Y19550
X14234Y19550
X12266Y19550
X7234Y19550
X5266Y19550
T05
X11250Y6050
X23450Y6250
X23450Y19450
X9750Y19450
M30
