G75*
%MOIN*%
%OFA0B0*%
%FSLAX24Y24*%
%IPPOS*%
%LPD*%
%AMOC8*
5,1,8,0,0,1.08239X$1,22.5*
%
%ADD10C,0.0000*%
%ADD11C,0.0050*%
%ADD12C,0.0060*%
%ADD13C,0.0070*%
%ADD14R,0.2800X0.2300*%
%ADD15C,0.0030*%
%ADD16C,0.0080*%
%ADD17C,0.0040*%
%ADD18C,0.0197*%
%ADD19C,0.0039*%
D10*
X003250Y002550D02*
X003250Y005050D01*
X005750Y005050D01*
X007550Y006850D01*
X007550Y014750D01*
X005750Y016550D01*
X003250Y016550D01*
X003250Y021235D01*
X030809Y021235D01*
X030809Y002550D01*
X003250Y002550D01*
X010463Y006050D02*
X010465Y006106D01*
X010471Y006161D01*
X010481Y006215D01*
X010494Y006269D01*
X010512Y006322D01*
X010533Y006373D01*
X010557Y006423D01*
X010585Y006471D01*
X010617Y006517D01*
X010651Y006561D01*
X010689Y006602D01*
X010729Y006640D01*
X010772Y006675D01*
X010817Y006707D01*
X010865Y006736D01*
X010914Y006762D01*
X010965Y006784D01*
X011017Y006802D01*
X011071Y006816D01*
X011126Y006827D01*
X011181Y006834D01*
X011236Y006837D01*
X011292Y006836D01*
X011347Y006831D01*
X011402Y006822D01*
X011456Y006810D01*
X011509Y006793D01*
X011561Y006773D01*
X011611Y006749D01*
X011659Y006722D01*
X011706Y006692D01*
X011750Y006658D01*
X011792Y006621D01*
X011830Y006581D01*
X011867Y006539D01*
X011900Y006494D01*
X011929Y006448D01*
X011956Y006399D01*
X011978Y006348D01*
X011998Y006296D01*
X012013Y006242D01*
X012025Y006188D01*
X012033Y006133D01*
X012037Y006078D01*
X012037Y006022D01*
X012033Y005967D01*
X012025Y005912D01*
X012013Y005858D01*
X011998Y005804D01*
X011978Y005752D01*
X011956Y005701D01*
X011929Y005652D01*
X011900Y005606D01*
X011867Y005561D01*
X011830Y005519D01*
X011792Y005479D01*
X011750Y005442D01*
X011706Y005408D01*
X011659Y005378D01*
X011611Y005351D01*
X011561Y005327D01*
X011509Y005307D01*
X011456Y005290D01*
X011402Y005278D01*
X011347Y005269D01*
X011292Y005264D01*
X011236Y005263D01*
X011181Y005266D01*
X011126Y005273D01*
X011071Y005284D01*
X011017Y005298D01*
X010965Y005316D01*
X010914Y005338D01*
X010865Y005364D01*
X010817Y005393D01*
X010772Y005425D01*
X010729Y005460D01*
X010689Y005498D01*
X010651Y005539D01*
X010617Y005583D01*
X010585Y005629D01*
X010557Y005677D01*
X010533Y005727D01*
X010512Y005778D01*
X010494Y005831D01*
X010481Y005885D01*
X010471Y005939D01*
X010465Y005994D01*
X010463Y006050D01*
X022663Y006250D02*
X022665Y006306D01*
X022671Y006361D01*
X022681Y006415D01*
X022694Y006469D01*
X022712Y006522D01*
X022733Y006573D01*
X022757Y006623D01*
X022785Y006671D01*
X022817Y006717D01*
X022851Y006761D01*
X022889Y006802D01*
X022929Y006840D01*
X022972Y006875D01*
X023017Y006907D01*
X023065Y006936D01*
X023114Y006962D01*
X023165Y006984D01*
X023217Y007002D01*
X023271Y007016D01*
X023326Y007027D01*
X023381Y007034D01*
X023436Y007037D01*
X023492Y007036D01*
X023547Y007031D01*
X023602Y007022D01*
X023656Y007010D01*
X023709Y006993D01*
X023761Y006973D01*
X023811Y006949D01*
X023859Y006922D01*
X023906Y006892D01*
X023950Y006858D01*
X023992Y006821D01*
X024030Y006781D01*
X024067Y006739D01*
X024100Y006694D01*
X024129Y006648D01*
X024156Y006599D01*
X024178Y006548D01*
X024198Y006496D01*
X024213Y006442D01*
X024225Y006388D01*
X024233Y006333D01*
X024237Y006278D01*
X024237Y006222D01*
X024233Y006167D01*
X024225Y006112D01*
X024213Y006058D01*
X024198Y006004D01*
X024178Y005952D01*
X024156Y005901D01*
X024129Y005852D01*
X024100Y005806D01*
X024067Y005761D01*
X024030Y005719D01*
X023992Y005679D01*
X023950Y005642D01*
X023906Y005608D01*
X023859Y005578D01*
X023811Y005551D01*
X023761Y005527D01*
X023709Y005507D01*
X023656Y005490D01*
X023602Y005478D01*
X023547Y005469D01*
X023492Y005464D01*
X023436Y005463D01*
X023381Y005466D01*
X023326Y005473D01*
X023271Y005484D01*
X023217Y005498D01*
X023165Y005516D01*
X023114Y005538D01*
X023065Y005564D01*
X023017Y005593D01*
X022972Y005625D01*
X022929Y005660D01*
X022889Y005698D01*
X022851Y005739D01*
X022817Y005783D01*
X022785Y005829D01*
X022757Y005877D01*
X022733Y005927D01*
X022712Y005978D01*
X022694Y006031D01*
X022681Y006085D01*
X022671Y006139D01*
X022665Y006194D01*
X022663Y006250D01*
X022663Y019450D02*
X022665Y019506D01*
X022671Y019561D01*
X022681Y019615D01*
X022694Y019669D01*
X022712Y019722D01*
X022733Y019773D01*
X022757Y019823D01*
X022785Y019871D01*
X022817Y019917D01*
X022851Y019961D01*
X022889Y020002D01*
X022929Y020040D01*
X022972Y020075D01*
X023017Y020107D01*
X023065Y020136D01*
X023114Y020162D01*
X023165Y020184D01*
X023217Y020202D01*
X023271Y020216D01*
X023326Y020227D01*
X023381Y020234D01*
X023436Y020237D01*
X023492Y020236D01*
X023547Y020231D01*
X023602Y020222D01*
X023656Y020210D01*
X023709Y020193D01*
X023761Y020173D01*
X023811Y020149D01*
X023859Y020122D01*
X023906Y020092D01*
X023950Y020058D01*
X023992Y020021D01*
X024030Y019981D01*
X024067Y019939D01*
X024100Y019894D01*
X024129Y019848D01*
X024156Y019799D01*
X024178Y019748D01*
X024198Y019696D01*
X024213Y019642D01*
X024225Y019588D01*
X024233Y019533D01*
X024237Y019478D01*
X024237Y019422D01*
X024233Y019367D01*
X024225Y019312D01*
X024213Y019258D01*
X024198Y019204D01*
X024178Y019152D01*
X024156Y019101D01*
X024129Y019052D01*
X024100Y019006D01*
X024067Y018961D01*
X024030Y018919D01*
X023992Y018879D01*
X023950Y018842D01*
X023906Y018808D01*
X023859Y018778D01*
X023811Y018751D01*
X023761Y018727D01*
X023709Y018707D01*
X023656Y018690D01*
X023602Y018678D01*
X023547Y018669D01*
X023492Y018664D01*
X023436Y018663D01*
X023381Y018666D01*
X023326Y018673D01*
X023271Y018684D01*
X023217Y018698D01*
X023165Y018716D01*
X023114Y018738D01*
X023065Y018764D01*
X023017Y018793D01*
X022972Y018825D01*
X022929Y018860D01*
X022889Y018898D01*
X022851Y018939D01*
X022817Y018983D01*
X022785Y019029D01*
X022757Y019077D01*
X022733Y019127D01*
X022712Y019178D01*
X022694Y019231D01*
X022681Y019285D01*
X022671Y019339D01*
X022665Y019394D01*
X022663Y019450D01*
X008963Y019450D02*
X008965Y019506D01*
X008971Y019561D01*
X008981Y019615D01*
X008994Y019669D01*
X009012Y019722D01*
X009033Y019773D01*
X009057Y019823D01*
X009085Y019871D01*
X009117Y019917D01*
X009151Y019961D01*
X009189Y020002D01*
X009229Y020040D01*
X009272Y020075D01*
X009317Y020107D01*
X009365Y020136D01*
X009414Y020162D01*
X009465Y020184D01*
X009517Y020202D01*
X009571Y020216D01*
X009626Y020227D01*
X009681Y020234D01*
X009736Y020237D01*
X009792Y020236D01*
X009847Y020231D01*
X009902Y020222D01*
X009956Y020210D01*
X010009Y020193D01*
X010061Y020173D01*
X010111Y020149D01*
X010159Y020122D01*
X010206Y020092D01*
X010250Y020058D01*
X010292Y020021D01*
X010330Y019981D01*
X010367Y019939D01*
X010400Y019894D01*
X010429Y019848D01*
X010456Y019799D01*
X010478Y019748D01*
X010498Y019696D01*
X010513Y019642D01*
X010525Y019588D01*
X010533Y019533D01*
X010537Y019478D01*
X010537Y019422D01*
X010533Y019367D01*
X010525Y019312D01*
X010513Y019258D01*
X010498Y019204D01*
X010478Y019152D01*
X010456Y019101D01*
X010429Y019052D01*
X010400Y019006D01*
X010367Y018961D01*
X010330Y018919D01*
X010292Y018879D01*
X010250Y018842D01*
X010206Y018808D01*
X010159Y018778D01*
X010111Y018751D01*
X010061Y018727D01*
X010009Y018707D01*
X009956Y018690D01*
X009902Y018678D01*
X009847Y018669D01*
X009792Y018664D01*
X009736Y018663D01*
X009681Y018666D01*
X009626Y018673D01*
X009571Y018684D01*
X009517Y018698D01*
X009465Y018716D01*
X009414Y018738D01*
X009365Y018764D01*
X009317Y018793D01*
X009272Y018825D01*
X009229Y018860D01*
X009189Y018898D01*
X009151Y018939D01*
X009117Y018983D01*
X009085Y019029D01*
X009057Y019077D01*
X009033Y019127D01*
X009012Y019178D01*
X008994Y019231D01*
X008981Y019285D01*
X008971Y019339D01*
X008965Y019394D01*
X008963Y019450D01*
D11*
X008687Y019450D02*
X008689Y019515D01*
X008695Y019579D01*
X008705Y019643D01*
X008718Y019707D01*
X008736Y019769D01*
X008757Y019830D01*
X008782Y019890D01*
X008811Y019948D01*
X008843Y020005D01*
X008879Y020059D01*
X008917Y020111D01*
X008959Y020160D01*
X009004Y020207D01*
X009052Y020251D01*
X009102Y020293D01*
X009154Y020330D01*
X009209Y020365D01*
X009266Y020396D01*
X009325Y020424D01*
X009385Y020448D01*
X009446Y020469D01*
X009509Y020485D01*
X009573Y020498D01*
X009637Y020507D01*
X009701Y020512D01*
X009766Y020513D01*
X009831Y020510D01*
X009895Y020503D01*
X009959Y020492D01*
X010023Y020477D01*
X010085Y020459D01*
X010146Y020437D01*
X010205Y020411D01*
X010263Y020381D01*
X010318Y020348D01*
X010372Y020312D01*
X010424Y020272D01*
X010472Y020230D01*
X010519Y020184D01*
X010562Y020136D01*
X010602Y020085D01*
X010639Y020032D01*
X010673Y019977D01*
X010704Y019920D01*
X010731Y019861D01*
X010754Y019800D01*
X010773Y019738D01*
X010789Y019675D01*
X010801Y019611D01*
X010809Y019547D01*
X010813Y019482D01*
X010813Y019418D01*
X010809Y019353D01*
X010801Y019289D01*
X010789Y019225D01*
X010773Y019162D01*
X010754Y019100D01*
X010731Y019039D01*
X010704Y018980D01*
X010673Y018923D01*
X010639Y018868D01*
X010602Y018815D01*
X010562Y018764D01*
X010519Y018716D01*
X010472Y018670D01*
X010424Y018628D01*
X010372Y018588D01*
X010318Y018552D01*
X010263Y018519D01*
X010205Y018489D01*
X010146Y018463D01*
X010085Y018441D01*
X010023Y018423D01*
X009959Y018408D01*
X009895Y018397D01*
X009831Y018390D01*
X009766Y018387D01*
X009701Y018388D01*
X009637Y018393D01*
X009573Y018402D01*
X009509Y018415D01*
X009446Y018431D01*
X009385Y018452D01*
X009325Y018476D01*
X009266Y018504D01*
X009209Y018535D01*
X009154Y018570D01*
X009102Y018607D01*
X009052Y018649D01*
X009004Y018693D01*
X008959Y018740D01*
X008917Y018789D01*
X008879Y018841D01*
X008843Y018895D01*
X008811Y018952D01*
X008782Y019010D01*
X008757Y019070D01*
X008736Y019131D01*
X008718Y019193D01*
X008705Y019257D01*
X008695Y019321D01*
X008689Y019385D01*
X008687Y019450D01*
X006486Y019550D02*
X006488Y019605D01*
X006494Y019659D01*
X006504Y019713D01*
X006518Y019765D01*
X006535Y019817D01*
X006557Y019867D01*
X006582Y019916D01*
X006610Y019963D01*
X006642Y020007D01*
X006677Y020049D01*
X006715Y020088D01*
X006756Y020125D01*
X006799Y020158D01*
X006844Y020188D01*
X006892Y020215D01*
X006941Y020238D01*
X006992Y020258D01*
X007045Y020274D01*
X007098Y020286D01*
X007152Y020294D01*
X007207Y020298D01*
X007261Y020298D01*
X007316Y020294D01*
X007370Y020286D01*
X007423Y020274D01*
X007476Y020258D01*
X007527Y020238D01*
X007576Y020215D01*
X007624Y020188D01*
X007669Y020158D01*
X007712Y020125D01*
X007753Y020088D01*
X007791Y020049D01*
X007826Y020007D01*
X007858Y019963D01*
X007886Y019916D01*
X007911Y019867D01*
X007933Y019817D01*
X007950Y019765D01*
X007964Y019713D01*
X007974Y019659D01*
X007980Y019605D01*
X007982Y019550D01*
X007980Y019495D01*
X007974Y019441D01*
X007964Y019387D01*
X007950Y019335D01*
X007933Y019283D01*
X007911Y019233D01*
X007886Y019184D01*
X007858Y019137D01*
X007826Y019093D01*
X007791Y019051D01*
X007753Y019012D01*
X007712Y018975D01*
X007669Y018942D01*
X007624Y018912D01*
X007576Y018885D01*
X007527Y018862D01*
X007476Y018842D01*
X007423Y018826D01*
X007370Y018814D01*
X007316Y018806D01*
X007261Y018802D01*
X007207Y018802D01*
X007152Y018806D01*
X007098Y018814D01*
X007045Y018826D01*
X006992Y018842D01*
X006941Y018862D01*
X006892Y018885D01*
X006844Y018912D01*
X006799Y018942D01*
X006756Y018975D01*
X006715Y019012D01*
X006677Y019051D01*
X006642Y019093D01*
X006610Y019137D01*
X006582Y019184D01*
X006557Y019233D01*
X006535Y019283D01*
X006518Y019335D01*
X006504Y019387D01*
X006494Y019441D01*
X006488Y019495D01*
X006486Y019550D01*
X004518Y019550D02*
X004520Y019605D01*
X004526Y019659D01*
X004536Y019713D01*
X004550Y019765D01*
X004567Y019817D01*
X004589Y019867D01*
X004614Y019916D01*
X004642Y019963D01*
X004674Y020007D01*
X004709Y020049D01*
X004747Y020088D01*
X004788Y020125D01*
X004831Y020158D01*
X004876Y020188D01*
X004924Y020215D01*
X004973Y020238D01*
X005024Y020258D01*
X005077Y020274D01*
X005130Y020286D01*
X005184Y020294D01*
X005239Y020298D01*
X005293Y020298D01*
X005348Y020294D01*
X005402Y020286D01*
X005455Y020274D01*
X005508Y020258D01*
X005559Y020238D01*
X005608Y020215D01*
X005656Y020188D01*
X005701Y020158D01*
X005744Y020125D01*
X005785Y020088D01*
X005823Y020049D01*
X005858Y020007D01*
X005890Y019963D01*
X005918Y019916D01*
X005943Y019867D01*
X005965Y019817D01*
X005982Y019765D01*
X005996Y019713D01*
X006006Y019659D01*
X006012Y019605D01*
X006014Y019550D01*
X006012Y019495D01*
X006006Y019441D01*
X005996Y019387D01*
X005982Y019335D01*
X005965Y019283D01*
X005943Y019233D01*
X005918Y019184D01*
X005890Y019137D01*
X005858Y019093D01*
X005823Y019051D01*
X005785Y019012D01*
X005744Y018975D01*
X005701Y018942D01*
X005656Y018912D01*
X005608Y018885D01*
X005559Y018862D01*
X005508Y018842D01*
X005455Y018826D01*
X005402Y018814D01*
X005348Y018806D01*
X005293Y018802D01*
X005239Y018802D01*
X005184Y018806D01*
X005130Y018814D01*
X005077Y018826D01*
X005024Y018842D01*
X004973Y018862D01*
X004924Y018885D01*
X004876Y018912D01*
X004831Y018942D01*
X004788Y018975D01*
X004747Y019012D01*
X004709Y019051D01*
X004674Y019093D01*
X004642Y019137D01*
X004614Y019184D01*
X004589Y019233D01*
X004567Y019283D01*
X004550Y019335D01*
X004536Y019387D01*
X004526Y019441D01*
X004520Y019495D01*
X004518Y019550D01*
X004596Y020770D02*
X005935Y020770D01*
X005935Y021007D01*
X006526Y021007D02*
X006526Y020770D01*
X007864Y020770D01*
X007864Y021007D01*
X008219Y021026D02*
X004281Y021026D01*
X004281Y018074D01*
X008219Y018074D01*
X008219Y021026D01*
X011281Y021026D02*
X015219Y021026D01*
X015219Y018074D01*
X011281Y018074D01*
X011281Y021026D01*
X011596Y021007D02*
X011596Y020770D01*
X012935Y020770D01*
X012935Y021007D01*
X013526Y021007D02*
X013526Y020770D01*
X014864Y020770D01*
X014864Y021007D01*
X013486Y019550D02*
X013488Y019605D01*
X013494Y019659D01*
X013504Y019713D01*
X013518Y019765D01*
X013535Y019817D01*
X013557Y019867D01*
X013582Y019916D01*
X013610Y019963D01*
X013642Y020007D01*
X013677Y020049D01*
X013715Y020088D01*
X013756Y020125D01*
X013799Y020158D01*
X013844Y020188D01*
X013892Y020215D01*
X013941Y020238D01*
X013992Y020258D01*
X014045Y020274D01*
X014098Y020286D01*
X014152Y020294D01*
X014207Y020298D01*
X014261Y020298D01*
X014316Y020294D01*
X014370Y020286D01*
X014423Y020274D01*
X014476Y020258D01*
X014527Y020238D01*
X014576Y020215D01*
X014624Y020188D01*
X014669Y020158D01*
X014712Y020125D01*
X014753Y020088D01*
X014791Y020049D01*
X014826Y020007D01*
X014858Y019963D01*
X014886Y019916D01*
X014911Y019867D01*
X014933Y019817D01*
X014950Y019765D01*
X014964Y019713D01*
X014974Y019659D01*
X014980Y019605D01*
X014982Y019550D01*
X014980Y019495D01*
X014974Y019441D01*
X014964Y019387D01*
X014950Y019335D01*
X014933Y019283D01*
X014911Y019233D01*
X014886Y019184D01*
X014858Y019137D01*
X014826Y019093D01*
X014791Y019051D01*
X014753Y019012D01*
X014712Y018975D01*
X014669Y018942D01*
X014624Y018912D01*
X014576Y018885D01*
X014527Y018862D01*
X014476Y018842D01*
X014423Y018826D01*
X014370Y018814D01*
X014316Y018806D01*
X014261Y018802D01*
X014207Y018802D01*
X014152Y018806D01*
X014098Y018814D01*
X014045Y018826D01*
X013992Y018842D01*
X013941Y018862D01*
X013892Y018885D01*
X013844Y018912D01*
X013799Y018942D01*
X013756Y018975D01*
X013715Y019012D01*
X013677Y019051D01*
X013642Y019093D01*
X013610Y019137D01*
X013582Y019184D01*
X013557Y019233D01*
X013535Y019283D01*
X013518Y019335D01*
X013504Y019387D01*
X013494Y019441D01*
X013488Y019495D01*
X013486Y019550D01*
X011518Y019550D02*
X011520Y019605D01*
X011526Y019659D01*
X011536Y019713D01*
X011550Y019765D01*
X011567Y019817D01*
X011589Y019867D01*
X011614Y019916D01*
X011642Y019963D01*
X011674Y020007D01*
X011709Y020049D01*
X011747Y020088D01*
X011788Y020125D01*
X011831Y020158D01*
X011876Y020188D01*
X011924Y020215D01*
X011973Y020238D01*
X012024Y020258D01*
X012077Y020274D01*
X012130Y020286D01*
X012184Y020294D01*
X012239Y020298D01*
X012293Y020298D01*
X012348Y020294D01*
X012402Y020286D01*
X012455Y020274D01*
X012508Y020258D01*
X012559Y020238D01*
X012608Y020215D01*
X012656Y020188D01*
X012701Y020158D01*
X012744Y020125D01*
X012785Y020088D01*
X012823Y020049D01*
X012858Y020007D01*
X012890Y019963D01*
X012918Y019916D01*
X012943Y019867D01*
X012965Y019817D01*
X012982Y019765D01*
X012996Y019713D01*
X013006Y019659D01*
X013012Y019605D01*
X013014Y019550D01*
X013012Y019495D01*
X013006Y019441D01*
X012996Y019387D01*
X012982Y019335D01*
X012965Y019283D01*
X012943Y019233D01*
X012918Y019184D01*
X012890Y019137D01*
X012858Y019093D01*
X012823Y019051D01*
X012785Y019012D01*
X012744Y018975D01*
X012701Y018942D01*
X012656Y018912D01*
X012608Y018885D01*
X012559Y018862D01*
X012508Y018842D01*
X012455Y018826D01*
X012402Y018814D01*
X012348Y018806D01*
X012293Y018802D01*
X012239Y018802D01*
X012184Y018806D01*
X012130Y018814D01*
X012077Y018826D01*
X012024Y018842D01*
X011973Y018862D01*
X011924Y018885D01*
X011876Y018912D01*
X011831Y018942D01*
X011788Y018975D01*
X011747Y019012D01*
X011709Y019051D01*
X011674Y019093D01*
X011642Y019137D01*
X011614Y019184D01*
X011589Y019233D01*
X011567Y019283D01*
X011550Y019335D01*
X011536Y019387D01*
X011526Y019441D01*
X011520Y019495D01*
X011518Y019550D01*
X018281Y018074D02*
X022219Y018074D01*
X022219Y021026D01*
X018281Y021026D01*
X018281Y018074D01*
X018518Y019550D02*
X018520Y019605D01*
X018526Y019659D01*
X018536Y019713D01*
X018550Y019765D01*
X018567Y019817D01*
X018589Y019867D01*
X018614Y019916D01*
X018642Y019963D01*
X018674Y020007D01*
X018709Y020049D01*
X018747Y020088D01*
X018788Y020125D01*
X018831Y020158D01*
X018876Y020188D01*
X018924Y020215D01*
X018973Y020238D01*
X019024Y020258D01*
X019077Y020274D01*
X019130Y020286D01*
X019184Y020294D01*
X019239Y020298D01*
X019293Y020298D01*
X019348Y020294D01*
X019402Y020286D01*
X019455Y020274D01*
X019508Y020258D01*
X019559Y020238D01*
X019608Y020215D01*
X019656Y020188D01*
X019701Y020158D01*
X019744Y020125D01*
X019785Y020088D01*
X019823Y020049D01*
X019858Y020007D01*
X019890Y019963D01*
X019918Y019916D01*
X019943Y019867D01*
X019965Y019817D01*
X019982Y019765D01*
X019996Y019713D01*
X020006Y019659D01*
X020012Y019605D01*
X020014Y019550D01*
X020012Y019495D01*
X020006Y019441D01*
X019996Y019387D01*
X019982Y019335D01*
X019965Y019283D01*
X019943Y019233D01*
X019918Y019184D01*
X019890Y019137D01*
X019858Y019093D01*
X019823Y019051D01*
X019785Y019012D01*
X019744Y018975D01*
X019701Y018942D01*
X019656Y018912D01*
X019608Y018885D01*
X019559Y018862D01*
X019508Y018842D01*
X019455Y018826D01*
X019402Y018814D01*
X019348Y018806D01*
X019293Y018802D01*
X019239Y018802D01*
X019184Y018806D01*
X019130Y018814D01*
X019077Y018826D01*
X019024Y018842D01*
X018973Y018862D01*
X018924Y018885D01*
X018876Y018912D01*
X018831Y018942D01*
X018788Y018975D01*
X018747Y019012D01*
X018709Y019051D01*
X018674Y019093D01*
X018642Y019137D01*
X018614Y019184D01*
X018589Y019233D01*
X018567Y019283D01*
X018550Y019335D01*
X018536Y019387D01*
X018526Y019441D01*
X018520Y019495D01*
X018518Y019550D01*
X018596Y020770D02*
X019935Y020770D01*
X019935Y021007D01*
X020526Y021007D02*
X020526Y020770D01*
X021864Y020770D01*
X021864Y021007D01*
X020486Y019550D02*
X020488Y019605D01*
X020494Y019659D01*
X020504Y019713D01*
X020518Y019765D01*
X020535Y019817D01*
X020557Y019867D01*
X020582Y019916D01*
X020610Y019963D01*
X020642Y020007D01*
X020677Y020049D01*
X020715Y020088D01*
X020756Y020125D01*
X020799Y020158D01*
X020844Y020188D01*
X020892Y020215D01*
X020941Y020238D01*
X020992Y020258D01*
X021045Y020274D01*
X021098Y020286D01*
X021152Y020294D01*
X021207Y020298D01*
X021261Y020298D01*
X021316Y020294D01*
X021370Y020286D01*
X021423Y020274D01*
X021476Y020258D01*
X021527Y020238D01*
X021576Y020215D01*
X021624Y020188D01*
X021669Y020158D01*
X021712Y020125D01*
X021753Y020088D01*
X021791Y020049D01*
X021826Y020007D01*
X021858Y019963D01*
X021886Y019916D01*
X021911Y019867D01*
X021933Y019817D01*
X021950Y019765D01*
X021964Y019713D01*
X021974Y019659D01*
X021980Y019605D01*
X021982Y019550D01*
X021980Y019495D01*
X021974Y019441D01*
X021964Y019387D01*
X021950Y019335D01*
X021933Y019283D01*
X021911Y019233D01*
X021886Y019184D01*
X021858Y019137D01*
X021826Y019093D01*
X021791Y019051D01*
X021753Y019012D01*
X021712Y018975D01*
X021669Y018942D01*
X021624Y018912D01*
X021576Y018885D01*
X021527Y018862D01*
X021476Y018842D01*
X021423Y018826D01*
X021370Y018814D01*
X021316Y018806D01*
X021261Y018802D01*
X021207Y018802D01*
X021152Y018806D01*
X021098Y018814D01*
X021045Y018826D01*
X020992Y018842D01*
X020941Y018862D01*
X020892Y018885D01*
X020844Y018912D01*
X020799Y018942D01*
X020756Y018975D01*
X020715Y019012D01*
X020677Y019051D01*
X020642Y019093D01*
X020610Y019137D01*
X020582Y019184D01*
X020557Y019233D01*
X020535Y019283D01*
X020518Y019335D01*
X020504Y019387D01*
X020494Y019441D01*
X020488Y019495D01*
X020486Y019550D01*
X018596Y020770D02*
X018596Y021007D01*
X022387Y019450D02*
X022389Y019515D01*
X022395Y019579D01*
X022405Y019643D01*
X022418Y019707D01*
X022436Y019769D01*
X022457Y019830D01*
X022482Y019890D01*
X022511Y019948D01*
X022543Y020005D01*
X022579Y020059D01*
X022617Y020111D01*
X022659Y020160D01*
X022704Y020207D01*
X022752Y020251D01*
X022802Y020293D01*
X022854Y020330D01*
X022909Y020365D01*
X022966Y020396D01*
X023025Y020424D01*
X023085Y020448D01*
X023146Y020469D01*
X023209Y020485D01*
X023273Y020498D01*
X023337Y020507D01*
X023401Y020512D01*
X023466Y020513D01*
X023531Y020510D01*
X023595Y020503D01*
X023659Y020492D01*
X023723Y020477D01*
X023785Y020459D01*
X023846Y020437D01*
X023905Y020411D01*
X023963Y020381D01*
X024018Y020348D01*
X024072Y020312D01*
X024124Y020272D01*
X024172Y020230D01*
X024219Y020184D01*
X024262Y020136D01*
X024302Y020085D01*
X024339Y020032D01*
X024373Y019977D01*
X024404Y019920D01*
X024431Y019861D01*
X024454Y019800D01*
X024473Y019738D01*
X024489Y019675D01*
X024501Y019611D01*
X024509Y019547D01*
X024513Y019482D01*
X024513Y019418D01*
X024509Y019353D01*
X024501Y019289D01*
X024489Y019225D01*
X024473Y019162D01*
X024454Y019100D01*
X024431Y019039D01*
X024404Y018980D01*
X024373Y018923D01*
X024339Y018868D01*
X024302Y018815D01*
X024262Y018764D01*
X024219Y018716D01*
X024172Y018670D01*
X024124Y018628D01*
X024072Y018588D01*
X024018Y018552D01*
X023963Y018519D01*
X023905Y018489D01*
X023846Y018463D01*
X023785Y018441D01*
X023723Y018423D01*
X023659Y018408D01*
X023595Y018397D01*
X023531Y018390D01*
X023466Y018387D01*
X023401Y018388D01*
X023337Y018393D01*
X023273Y018402D01*
X023209Y018415D01*
X023146Y018431D01*
X023085Y018452D01*
X023025Y018476D01*
X022966Y018504D01*
X022909Y018535D01*
X022854Y018570D01*
X022802Y018607D01*
X022752Y018649D01*
X022704Y018693D01*
X022659Y018740D01*
X022617Y018789D01*
X022579Y018841D01*
X022543Y018895D01*
X022511Y018952D01*
X022482Y019010D01*
X022457Y019070D01*
X022436Y019131D01*
X022418Y019193D01*
X022405Y019257D01*
X022395Y019321D01*
X022389Y019385D01*
X022387Y019450D01*
X016550Y013850D02*
X016550Y007850D01*
X007550Y007850D01*
X007550Y008350D01*
X003300Y008350D01*
X003300Y013350D01*
X007550Y013350D01*
X007550Y013850D01*
X016550Y013850D01*
X004596Y020770D02*
X004596Y021007D01*
X022387Y006250D02*
X022389Y006315D01*
X022395Y006379D01*
X022405Y006443D01*
X022418Y006507D01*
X022436Y006569D01*
X022457Y006630D01*
X022482Y006690D01*
X022511Y006748D01*
X022543Y006805D01*
X022579Y006859D01*
X022617Y006911D01*
X022659Y006960D01*
X022704Y007007D01*
X022752Y007051D01*
X022802Y007093D01*
X022854Y007130D01*
X022909Y007165D01*
X022966Y007196D01*
X023025Y007224D01*
X023085Y007248D01*
X023146Y007269D01*
X023209Y007285D01*
X023273Y007298D01*
X023337Y007307D01*
X023401Y007312D01*
X023466Y007313D01*
X023531Y007310D01*
X023595Y007303D01*
X023659Y007292D01*
X023723Y007277D01*
X023785Y007259D01*
X023846Y007237D01*
X023905Y007211D01*
X023963Y007181D01*
X024018Y007148D01*
X024072Y007112D01*
X024124Y007072D01*
X024172Y007030D01*
X024219Y006984D01*
X024262Y006936D01*
X024302Y006885D01*
X024339Y006832D01*
X024373Y006777D01*
X024404Y006720D01*
X024431Y006661D01*
X024454Y006600D01*
X024473Y006538D01*
X024489Y006475D01*
X024501Y006411D01*
X024509Y006347D01*
X024513Y006282D01*
X024513Y006218D01*
X024509Y006153D01*
X024501Y006089D01*
X024489Y006025D01*
X024473Y005962D01*
X024454Y005900D01*
X024431Y005839D01*
X024404Y005780D01*
X024373Y005723D01*
X024339Y005668D01*
X024302Y005615D01*
X024262Y005564D01*
X024219Y005516D01*
X024172Y005470D01*
X024124Y005428D01*
X024072Y005388D01*
X024018Y005352D01*
X023963Y005319D01*
X023905Y005289D01*
X023846Y005263D01*
X023785Y005241D01*
X023723Y005223D01*
X023659Y005208D01*
X023595Y005197D01*
X023531Y005190D01*
X023466Y005187D01*
X023401Y005188D01*
X023337Y005193D01*
X023273Y005202D01*
X023209Y005215D01*
X023146Y005231D01*
X023085Y005252D01*
X023025Y005276D01*
X022966Y005304D01*
X022909Y005335D01*
X022854Y005370D01*
X022802Y005407D01*
X022752Y005449D01*
X022704Y005493D01*
X022659Y005540D01*
X022617Y005589D01*
X022579Y005641D01*
X022543Y005695D01*
X022511Y005752D01*
X022482Y005810D01*
X022457Y005870D01*
X022436Y005931D01*
X022418Y005993D01*
X022405Y006057D01*
X022395Y006121D01*
X022389Y006185D01*
X022387Y006250D01*
X022700Y004950D02*
X026700Y004950D01*
X026700Y004350D01*
X022700Y004350D01*
X022700Y004950D01*
X021700Y004950D02*
X016700Y004950D01*
X016700Y004350D01*
X021700Y004350D01*
X021700Y004950D01*
X021700Y004350D02*
X021700Y002650D01*
X016700Y002650D01*
X016700Y004350D01*
X014750Y004400D02*
X011750Y004400D01*
X011750Y005000D01*
X014750Y005000D01*
X014750Y004400D01*
X014750Y002700D01*
X011750Y002700D01*
X011750Y004400D01*
X010750Y004400D02*
X010750Y005000D01*
X007750Y005000D01*
X007750Y004400D01*
X010750Y004400D01*
X010750Y002700D01*
X007750Y002700D01*
X007750Y004400D01*
X006750Y004400D02*
X003750Y004400D01*
X003750Y005000D01*
X006750Y005000D01*
X006750Y004400D01*
X006750Y002700D01*
X003750Y002700D01*
X003750Y004400D01*
X010187Y006050D02*
X010189Y006115D01*
X010195Y006179D01*
X010205Y006243D01*
X010218Y006307D01*
X010236Y006369D01*
X010257Y006430D01*
X010282Y006490D01*
X010311Y006548D01*
X010343Y006605D01*
X010379Y006659D01*
X010417Y006711D01*
X010459Y006760D01*
X010504Y006807D01*
X010552Y006851D01*
X010602Y006893D01*
X010654Y006930D01*
X010709Y006965D01*
X010766Y006996D01*
X010825Y007024D01*
X010885Y007048D01*
X010946Y007069D01*
X011009Y007085D01*
X011073Y007098D01*
X011137Y007107D01*
X011201Y007112D01*
X011266Y007113D01*
X011331Y007110D01*
X011395Y007103D01*
X011459Y007092D01*
X011523Y007077D01*
X011585Y007059D01*
X011646Y007037D01*
X011705Y007011D01*
X011763Y006981D01*
X011818Y006948D01*
X011872Y006912D01*
X011924Y006872D01*
X011972Y006830D01*
X012019Y006784D01*
X012062Y006736D01*
X012102Y006685D01*
X012139Y006632D01*
X012173Y006577D01*
X012204Y006520D01*
X012231Y006461D01*
X012254Y006400D01*
X012273Y006338D01*
X012289Y006275D01*
X012301Y006211D01*
X012309Y006147D01*
X012313Y006082D01*
X012313Y006018D01*
X012309Y005953D01*
X012301Y005889D01*
X012289Y005825D01*
X012273Y005762D01*
X012254Y005700D01*
X012231Y005639D01*
X012204Y005580D01*
X012173Y005523D01*
X012139Y005468D01*
X012102Y005415D01*
X012062Y005364D01*
X012019Y005316D01*
X011972Y005270D01*
X011924Y005228D01*
X011872Y005188D01*
X011818Y005152D01*
X011763Y005119D01*
X011705Y005089D01*
X011646Y005063D01*
X011585Y005041D01*
X011523Y005023D01*
X011459Y005008D01*
X011395Y004997D01*
X011331Y004990D01*
X011266Y004987D01*
X011201Y004988D01*
X011137Y004993D01*
X011073Y005002D01*
X011009Y005015D01*
X010946Y005031D01*
X010885Y005052D01*
X010825Y005076D01*
X010766Y005104D01*
X010709Y005135D01*
X010654Y005170D01*
X010602Y005207D01*
X010552Y005249D01*
X010504Y005293D01*
X010459Y005340D01*
X010417Y005389D01*
X010379Y005441D01*
X010343Y005495D01*
X010311Y005552D01*
X010282Y005610D01*
X010257Y005670D01*
X010236Y005731D01*
X010218Y005793D01*
X010205Y005857D01*
X010195Y005921D01*
X010189Y005985D01*
X010187Y006050D01*
X022700Y004350D02*
X022700Y002650D01*
X026700Y002650D01*
X026700Y004350D01*
X026825Y003865D02*
X026825Y003565D01*
X026825Y003715D02*
X027275Y003715D01*
X027275Y003404D02*
X026975Y003404D01*
X026825Y003254D01*
X026975Y003104D01*
X027275Y003104D01*
X027200Y002944D02*
X027275Y002869D01*
X027275Y002719D01*
X027200Y002644D01*
X027050Y002719D02*
X027050Y002869D01*
X027125Y002944D01*
X027200Y002944D01*
X027050Y003104D02*
X027050Y003404D01*
X026900Y002944D02*
X026825Y002869D01*
X026825Y002719D01*
X026900Y002644D01*
X026975Y002644D01*
X027050Y002719D01*
X028200Y002650D02*
X028200Y004350D01*
X030200Y004350D01*
X030200Y004950D01*
X028200Y004950D01*
X028200Y004350D01*
X030200Y004350D02*
X030200Y002650D01*
X028200Y002650D01*
X030275Y002983D02*
X030725Y002983D01*
X030575Y003134D01*
X030725Y003284D01*
X030275Y003284D01*
X030425Y003444D02*
X030275Y003594D01*
X030425Y003744D01*
X030725Y003744D01*
X030725Y003904D02*
X030275Y003904D01*
X030500Y003979D02*
X030725Y004204D01*
X030725Y004365D02*
X030275Y004365D01*
X030275Y004665D01*
X030500Y004515D02*
X030500Y004365D01*
X030725Y004365D02*
X030725Y004665D01*
X030275Y004204D02*
X030575Y003904D01*
X030500Y003744D02*
X030500Y003444D01*
X030425Y003444D02*
X030725Y003444D01*
D12*
X030337Y005480D02*
X030420Y005563D01*
X030420Y005730D01*
X030337Y005814D01*
X030253Y005814D01*
X030170Y005730D01*
X030170Y005563D01*
X030086Y005480D01*
X030003Y005480D01*
X029920Y005563D01*
X029920Y005730D01*
X030003Y005814D01*
X030170Y005996D02*
X030337Y005996D01*
X030420Y006079D01*
X030420Y006246D01*
X030337Y006329D01*
X030170Y006329D01*
X030086Y006246D01*
X030086Y006079D01*
X030170Y005996D01*
X030086Y006511D02*
X030337Y006511D01*
X030420Y006595D01*
X030420Y006845D01*
X030086Y006845D01*
X030086Y007027D02*
X030086Y007194D01*
X030003Y007110D02*
X030337Y007110D01*
X030420Y007194D01*
X030420Y007371D02*
X029920Y007371D01*
X030086Y007454D02*
X030086Y007621D01*
X030170Y007704D01*
X030420Y007704D01*
X030337Y007886D02*
X030253Y007970D01*
X030253Y008220D01*
X030170Y008220D02*
X030420Y008220D01*
X030420Y007970D01*
X030337Y007886D01*
X030086Y007970D02*
X030086Y008137D01*
X030170Y008220D01*
X030086Y008402D02*
X030086Y008485D01*
X030170Y008569D01*
X030086Y008652D01*
X030170Y008736D01*
X030420Y008736D01*
X030420Y008569D02*
X030170Y008569D01*
X030086Y008402D02*
X030420Y008402D01*
X029580Y008316D02*
X029580Y008566D01*
X029497Y008650D01*
X029413Y008566D01*
X029413Y008399D01*
X029330Y008316D01*
X029246Y008399D01*
X029246Y008650D01*
X029246Y008832D02*
X029246Y008915D01*
X029580Y008915D01*
X029580Y008832D02*
X029580Y008998D01*
X029497Y009259D02*
X029163Y009259D01*
X029246Y009342D02*
X029246Y009175D01*
X029497Y009259D02*
X029580Y009342D01*
X029497Y009519D02*
X029580Y009603D01*
X029580Y009853D01*
X029663Y009853D02*
X029246Y009853D01*
X029663Y009853D02*
X029747Y009769D01*
X029747Y009686D01*
X029497Y009519D02*
X029246Y009519D01*
X030003Y009517D02*
X030337Y009517D01*
X030420Y009600D01*
X030337Y009777D02*
X030420Y009860D01*
X030420Y010027D01*
X030337Y010111D01*
X030170Y010111D01*
X030086Y010027D01*
X030086Y009860D01*
X030170Y009777D01*
X030337Y009777D01*
X030086Y009600D02*
X030086Y009433D01*
X030170Y009251D02*
X030337Y009251D01*
X030420Y009168D01*
X030420Y008918D01*
X030587Y008918D02*
X030086Y008918D01*
X030086Y009168D01*
X030170Y009251D01*
X029080Y008915D02*
X028996Y008915D01*
X028420Y008746D02*
X028086Y008746D01*
X028253Y008746D02*
X028086Y008913D01*
X028086Y008996D01*
X028086Y009175D02*
X028086Y009342D01*
X028003Y009259D02*
X028337Y009259D01*
X028420Y009342D01*
X028420Y009519D02*
X028420Y009686D01*
X028420Y009603D02*
X028086Y009603D01*
X028086Y009519D01*
X027920Y009603D02*
X027836Y009603D01*
X027580Y009519D02*
X027246Y009519D01*
X027246Y009686D02*
X027246Y009769D01*
X027246Y009686D02*
X027413Y009519D01*
X027413Y009337D02*
X027330Y009254D01*
X027330Y009004D01*
X027330Y009254D02*
X027246Y009337D01*
X027163Y009337D01*
X027080Y009254D01*
X027080Y009004D01*
X027580Y009004D01*
X027580Y009254D01*
X027497Y009337D01*
X027413Y009337D01*
X027497Y009949D02*
X027413Y010032D01*
X027413Y010282D01*
X027330Y010282D02*
X027580Y010282D01*
X027580Y010032D01*
X027497Y009949D01*
X027246Y010032D02*
X027246Y010199D01*
X027330Y010282D01*
X027330Y010465D02*
X027497Y010465D01*
X027580Y010548D01*
X027580Y010798D01*
X027663Y010798D02*
X027246Y010798D01*
X027246Y010548D01*
X027330Y010465D01*
X027747Y010631D02*
X027747Y010715D01*
X027663Y010798D01*
X027497Y010980D02*
X027580Y011064D01*
X027580Y011314D01*
X027663Y011314D02*
X027246Y011314D01*
X027246Y011064D01*
X027330Y010980D01*
X027497Y010980D01*
X027747Y011147D02*
X027747Y011230D01*
X027663Y011314D01*
X027747Y011496D02*
X027580Y011663D01*
X027580Y011579D01*
X027497Y011579D01*
X027497Y011663D01*
X027580Y011663D01*
X028086Y011228D02*
X028420Y010894D01*
X028420Y011228D01*
X028086Y011228D02*
X028086Y010894D01*
X028170Y010712D02*
X028253Y010712D01*
X028253Y010379D01*
X028170Y010379D02*
X028086Y010462D01*
X028086Y010629D01*
X028170Y010712D01*
X028420Y010629D02*
X028420Y010462D01*
X028337Y010379D01*
X028170Y010379D01*
X028170Y010197D02*
X028420Y010197D01*
X028170Y010197D02*
X028086Y010113D01*
X028086Y009863D01*
X028420Y009863D01*
X029246Y010634D02*
X029330Y010550D01*
X029497Y010550D01*
X029580Y010634D01*
X029580Y010801D01*
X029497Y010884D01*
X029330Y010884D01*
X029246Y010801D01*
X029246Y010634D01*
X029330Y011066D02*
X029330Y011233D01*
X029163Y011150D02*
X029080Y011233D01*
X029163Y011150D02*
X029580Y011150D01*
X030170Y010626D02*
X030420Y010626D01*
X030170Y010626D02*
X030086Y010543D01*
X030086Y010293D01*
X030420Y010293D01*
X028420Y008564D02*
X028170Y008564D01*
X028086Y008480D01*
X028086Y008313D01*
X028253Y008313D02*
X028253Y008564D01*
X028420Y008564D02*
X028420Y008313D01*
X028337Y008230D01*
X028253Y008313D01*
X028420Y008048D02*
X027920Y008048D01*
X028086Y007881D01*
X027920Y007714D01*
X028420Y007714D01*
X029246Y007621D02*
X029246Y007454D01*
X029330Y007371D01*
X029497Y007371D01*
X029580Y007454D01*
X029580Y007621D01*
X029413Y007704D02*
X029413Y007371D01*
X029246Y007189D02*
X029580Y007022D01*
X029246Y006855D01*
X029246Y006595D02*
X029580Y006595D01*
X029580Y006678D02*
X029580Y006511D01*
X029580Y006329D02*
X029330Y006329D01*
X029246Y006246D01*
X029246Y005996D01*
X029580Y005996D01*
X029497Y005814D02*
X029080Y005814D01*
X029080Y005480D02*
X029497Y005480D01*
X029580Y005563D01*
X029580Y005730D01*
X029497Y005814D01*
X028420Y005814D02*
X028170Y005563D01*
X028253Y005480D02*
X027920Y005814D01*
X028086Y005996D02*
X028086Y006079D01*
X028420Y006079D01*
X028420Y005996D02*
X028420Y006162D01*
X028420Y006339D02*
X028086Y006339D01*
X028253Y006339D02*
X028086Y006506D01*
X028086Y006590D01*
X027920Y006769D02*
X028420Y006769D01*
X028253Y006769D02*
X028086Y007019D01*
X028253Y006769D02*
X028420Y007019D01*
X028996Y006595D02*
X029080Y006595D01*
X029246Y006595D02*
X029246Y006511D01*
X027920Y006079D02*
X027836Y006079D01*
X027580Y005996D02*
X027246Y005996D01*
X027246Y006162D02*
X027246Y006246D01*
X027246Y006162D02*
X027413Y005996D01*
X027330Y005814D02*
X027330Y005647D01*
X027330Y005814D02*
X027497Y005814D01*
X027580Y005730D01*
X027580Y005563D01*
X027497Y005480D01*
X027163Y005480D01*
X027080Y005563D01*
X027080Y005730D01*
X027163Y005814D01*
X027920Y005480D02*
X028420Y005480D01*
X027497Y006425D02*
X027413Y006509D01*
X027413Y006759D01*
X027330Y006759D02*
X027580Y006759D01*
X027580Y006509D01*
X027497Y006425D01*
X027246Y006509D02*
X027246Y006676D01*
X027330Y006759D01*
X027330Y006941D02*
X027246Y007024D01*
X027246Y007191D01*
X027330Y007275D01*
X027413Y007275D01*
X027413Y006941D01*
X027330Y006941D02*
X027497Y006941D01*
X027580Y007024D01*
X027580Y007191D01*
X027580Y007457D02*
X027246Y007457D01*
X027246Y007540D01*
X027330Y007623D01*
X027246Y007707D01*
X027330Y007790D01*
X027580Y007790D01*
X027580Y007623D02*
X027330Y007623D01*
X027330Y007972D02*
X027246Y008056D01*
X027246Y008222D01*
X027330Y008306D01*
X027413Y008306D01*
X027413Y007972D01*
X027330Y007972D02*
X027497Y007972D01*
X027580Y008056D01*
X027580Y008222D01*
X029246Y008137D02*
X029246Y008053D01*
X029413Y007886D01*
X029580Y007886D02*
X029246Y007886D01*
X029330Y007704D02*
X029413Y007704D01*
X029330Y007704D02*
X029246Y007621D01*
X030086Y007454D02*
X030170Y007371D01*
X030170Y011980D02*
X030086Y012063D01*
X030086Y012230D01*
X030170Y012314D01*
X030420Y012314D01*
X030337Y012579D02*
X030003Y012579D01*
X030086Y012496D02*
X030086Y012662D01*
X030086Y012839D02*
X030086Y013006D01*
X030003Y012923D02*
X030337Y012923D01*
X030420Y013006D01*
X030420Y013183D02*
X030420Y013433D01*
X030337Y013517D01*
X030170Y013517D01*
X030086Y013433D01*
X030086Y013183D01*
X030587Y013183D01*
X030420Y013699D02*
X030337Y013699D01*
X030337Y013782D01*
X030420Y013782D01*
X030420Y013699D01*
X030170Y013699D02*
X030086Y013699D01*
X030086Y013782D01*
X030170Y013782D01*
X030170Y013699D01*
X030420Y013957D02*
X029920Y014290D01*
X029920Y014806D02*
X030420Y014472D01*
X030337Y014988D02*
X030420Y015071D01*
X030420Y015322D01*
X030503Y015322D02*
X030086Y015322D01*
X030086Y015071D01*
X030170Y014988D01*
X030337Y014988D01*
X030587Y015155D02*
X030587Y015238D01*
X030503Y015322D01*
X030420Y015504D02*
X030420Y015670D01*
X030420Y015587D02*
X029920Y015587D01*
X029920Y015504D01*
X030337Y015847D02*
X030253Y015931D01*
X030253Y016181D01*
X030170Y016181D02*
X030420Y016181D01*
X030420Y015931D01*
X030337Y015847D01*
X030086Y015931D02*
X030086Y016098D01*
X030170Y016181D01*
X030170Y016363D02*
X030337Y016363D01*
X030420Y016446D01*
X030420Y016697D01*
X030420Y016879D02*
X030420Y017129D01*
X030337Y017212D01*
X030253Y017129D01*
X030253Y016962D01*
X030170Y016879D01*
X030086Y016962D01*
X030086Y017212D01*
X030086Y017394D02*
X030337Y017394D01*
X030420Y017478D01*
X030337Y017561D01*
X030420Y017644D01*
X030337Y017728D01*
X030086Y017728D01*
X030170Y017910D02*
X030086Y017993D01*
X030086Y018160D01*
X030170Y018243D01*
X030253Y018243D01*
X030253Y017910D01*
X030170Y017910D02*
X030337Y017910D01*
X030420Y017993D01*
X030420Y018160D01*
X030420Y018425D02*
X029920Y018425D01*
X030086Y018425D02*
X030086Y018676D01*
X030170Y018759D01*
X030337Y018759D01*
X030420Y018676D01*
X030420Y018425D01*
X030420Y018941D02*
X030420Y019025D01*
X030337Y019025D01*
X030337Y018941D01*
X030420Y018941D01*
X030337Y019199D02*
X030420Y019282D01*
X030420Y019449D01*
X030337Y019533D01*
X030170Y019533D01*
X030086Y019449D01*
X030086Y019282D01*
X030170Y019199D01*
X030337Y019199D01*
X030420Y019715D02*
X030086Y019715D01*
X030086Y019881D02*
X030086Y019965D01*
X030086Y019881D02*
X030253Y019715D01*
X030170Y020144D02*
X030337Y020144D01*
X030420Y020228D01*
X030420Y020478D01*
X030503Y020478D02*
X030086Y020478D01*
X030086Y020228D01*
X030170Y020144D01*
X030587Y020311D02*
X030587Y020395D01*
X030503Y020478D01*
X028580Y019500D02*
X028580Y019110D01*
X029340Y018250D02*
X029420Y018250D01*
X029420Y015250D01*
X029340Y015250D01*
X030170Y016363D02*
X030086Y016446D01*
X030086Y016697D01*
X025280Y016630D02*
X025301Y016632D01*
X025321Y016637D01*
X025340Y016646D01*
X025357Y016658D01*
X025372Y016673D01*
X025384Y016690D01*
X025393Y016709D01*
X025398Y016729D01*
X025400Y016750D01*
X025398Y016771D01*
X025393Y016791D01*
X025384Y016810D01*
X025372Y016827D01*
X025357Y016842D01*
X025340Y016854D01*
X025321Y016863D01*
X025301Y016868D01*
X025280Y016870D01*
X025280Y016630D01*
X025280Y015250D01*
X025360Y015250D01*
X025280Y016870D02*
X025280Y018250D01*
X025360Y018250D01*
X030420Y012662D02*
X030337Y012579D01*
X030420Y011980D02*
X029920Y011980D01*
D13*
X026215Y011967D02*
X026215Y012361D01*
X026215Y012164D02*
X025624Y012164D01*
X025821Y011967D01*
X026018Y011753D02*
X025624Y011753D01*
X026018Y011753D02*
X026215Y011556D01*
X026018Y011360D01*
X025624Y011360D01*
X025920Y010538D02*
X026018Y010538D01*
X026018Y010144D01*
X025920Y010144D02*
X025821Y010243D01*
X025821Y010439D01*
X025920Y010538D01*
X026215Y010439D02*
X026215Y010243D01*
X026117Y010144D01*
X025920Y010144D01*
X025920Y009930D02*
X025821Y009832D01*
X025821Y009536D01*
X025624Y009536D02*
X026215Y009536D01*
X026215Y009832D01*
X026117Y009930D01*
X025920Y009930D01*
X025920Y009322D02*
X025821Y009224D01*
X025821Y009027D01*
X025920Y008929D01*
X026117Y008929D01*
X026215Y009027D01*
X026215Y009224D01*
X026117Y009322D01*
X025920Y009322D01*
X025821Y008718D02*
X025821Y008619D01*
X026018Y008422D01*
X026215Y008422D02*
X025821Y008422D01*
X025920Y008208D02*
X026117Y008208D01*
X026215Y008110D01*
X026215Y007815D01*
X026412Y007815D02*
X025821Y007815D01*
X025821Y008110D01*
X025920Y008208D01*
X025821Y007601D02*
X025821Y007305D01*
X025920Y007207D01*
X026117Y007207D01*
X026215Y007305D01*
X026215Y007601D01*
X026313Y007601D02*
X025821Y007601D01*
X026313Y007601D02*
X026412Y007502D01*
X026412Y007404D01*
X025821Y006996D02*
X025821Y006897D01*
X026018Y006700D01*
X026215Y006700D02*
X025821Y006700D01*
X025920Y006486D02*
X026018Y006486D01*
X026018Y006093D01*
X025920Y006093D02*
X025821Y006191D01*
X025821Y006388D01*
X025920Y006486D01*
X026215Y006388D02*
X026215Y006191D01*
X026117Y006093D01*
X025920Y006093D01*
X026018Y005879D02*
X026117Y005879D01*
X026215Y005780D01*
X026215Y005485D01*
X025624Y005485D01*
X025624Y005780D01*
X025723Y005879D01*
X025821Y005879D01*
X025920Y005780D01*
X025920Y005485D01*
X025920Y005780D02*
X026018Y005879D01*
X014695Y011240D02*
X014590Y011135D01*
X014380Y011135D01*
X014275Y011240D01*
X014275Y011450D01*
X014380Y011555D01*
X014590Y011555D01*
X014695Y011450D01*
X014695Y011240D01*
X014050Y011135D02*
X014050Y011450D01*
X013945Y011555D01*
X013630Y011555D01*
X013630Y011135D01*
X013411Y011135D02*
X013200Y011135D01*
X013305Y011135D02*
X013305Y011555D01*
X013200Y011555D01*
X012976Y011555D02*
X012976Y011135D01*
X012661Y011135D01*
X012556Y011240D01*
X012556Y011555D01*
X012334Y011555D02*
X012229Y011555D01*
X012019Y011345D01*
X012019Y011135D02*
X012019Y011555D01*
X011794Y011450D02*
X011689Y011555D01*
X011374Y011555D01*
X011374Y010925D01*
X011374Y011135D02*
X011689Y011135D01*
X011794Y011240D01*
X011794Y011450D01*
X011150Y011555D02*
X010835Y011555D01*
X010730Y011450D01*
X010835Y011345D01*
X011045Y011345D01*
X011150Y011240D01*
X011045Y011135D01*
X010730Y011135D01*
X010505Y011135D02*
X010085Y011135D01*
X010085Y011766D01*
X010505Y011766D01*
X010295Y011450D02*
X010085Y011450D01*
X010835Y010821D02*
X010835Y010716D01*
X010835Y010505D02*
X010730Y010505D01*
X010835Y010505D02*
X010835Y010085D01*
X010730Y010085D02*
X010940Y010085D01*
X011159Y010190D02*
X011264Y010085D01*
X011580Y010085D01*
X011804Y010190D02*
X011804Y010400D01*
X011909Y010505D01*
X012119Y010505D01*
X012224Y010400D01*
X012224Y010190D01*
X012119Y010085D01*
X011909Y010085D01*
X011804Y010190D01*
X011580Y010505D02*
X011264Y010505D01*
X011159Y010400D01*
X011159Y010190D01*
X010505Y010400D02*
X010400Y010295D01*
X010085Y010295D01*
X010085Y010085D02*
X010085Y010716D01*
X010400Y010716D01*
X010505Y010610D01*
X010505Y010400D01*
X013305Y011766D02*
X013305Y011871D01*
X025624Y012977D02*
X025624Y013174D01*
X025723Y013273D01*
X026117Y012879D01*
X026215Y012977D01*
X026215Y013174D01*
X026117Y013273D01*
X025723Y013273D01*
X025624Y012977D02*
X025723Y012879D01*
X026117Y012879D01*
X026117Y012673D02*
X026215Y012673D01*
X026215Y012575D01*
X026117Y012575D01*
X026117Y012673D01*
D14*
X028050Y013100D03*
D15*
X025347Y014595D02*
X025033Y014909D01*
X025190Y014909D02*
X025190Y014595D01*
X025033Y014595D02*
X025347Y014909D01*
X025347Y014752D02*
X025033Y014752D01*
D16*
X024837Y016030D02*
X024219Y016030D01*
X024219Y016524D02*
X024837Y016524D01*
X024960Y016400D01*
X024960Y016153D01*
X024837Y016030D01*
X024960Y016785D02*
X024960Y017279D01*
X024960Y017032D02*
X024219Y017032D01*
X024466Y016785D01*
D17*
X021371Y017816D02*
X021064Y017816D01*
X021217Y017816D02*
X021217Y017355D01*
X020910Y017355D02*
X020910Y017662D01*
X020757Y017816D01*
X020603Y017662D01*
X020603Y017355D01*
X020450Y017432D02*
X020373Y017355D01*
X020143Y017355D01*
X020143Y017816D01*
X020373Y017816D01*
X020450Y017739D01*
X020450Y017662D01*
X020373Y017586D01*
X020143Y017586D01*
X020373Y017586D02*
X020450Y017509D01*
X020450Y017432D01*
X020603Y017586D02*
X020910Y017586D01*
X019990Y017279D02*
X019683Y017279D01*
X019529Y017432D02*
X019452Y017355D01*
X019299Y017355D01*
X019222Y017432D01*
X019299Y017586D02*
X019452Y017586D01*
X019529Y017509D01*
X019529Y017432D01*
X019299Y017586D02*
X019222Y017662D01*
X019222Y017739D01*
X019299Y017816D01*
X019452Y017816D01*
X019529Y017739D01*
X019069Y017739D02*
X018992Y017816D01*
X018762Y017816D01*
X018762Y017355D01*
X018762Y017509D02*
X018992Y017509D01*
X019069Y017586D01*
X019069Y017739D01*
X018608Y017739D02*
X018532Y017816D01*
X018378Y017816D01*
X018301Y017739D01*
X018301Y017432D01*
X018378Y017355D01*
X018532Y017355D01*
X018608Y017432D01*
X018608Y017586D01*
X018455Y017586D01*
X014371Y017816D02*
X014064Y017816D01*
X014217Y017816D02*
X014217Y017355D01*
X013910Y017355D02*
X013910Y017662D01*
X013757Y017816D01*
X013603Y017662D01*
X013603Y017355D01*
X013450Y017432D02*
X013373Y017355D01*
X013143Y017355D01*
X013143Y017816D01*
X013373Y017816D01*
X013450Y017739D01*
X013450Y017662D01*
X013373Y017586D01*
X013143Y017586D01*
X013373Y017586D02*
X013450Y017509D01*
X013450Y017432D01*
X013603Y017586D02*
X013910Y017586D01*
X012990Y017279D02*
X012683Y017279D01*
X012376Y017355D02*
X012376Y017816D01*
X012529Y017816D02*
X012222Y017816D01*
X012069Y017662D02*
X012069Y017355D01*
X012069Y017586D02*
X011762Y017586D01*
X011762Y017662D02*
X011915Y017816D01*
X012069Y017662D01*
X011762Y017662D02*
X011762Y017355D01*
X011608Y017432D02*
X011532Y017355D01*
X011378Y017355D01*
X011301Y017432D01*
X011378Y017586D02*
X011532Y017586D01*
X011608Y017509D01*
X011608Y017432D01*
X011378Y017586D02*
X011301Y017662D01*
X011301Y017739D01*
X011378Y017816D01*
X011532Y017816D01*
X011608Y017739D01*
X007371Y017816D02*
X007064Y017816D01*
X007217Y017816D02*
X007217Y017355D01*
X006910Y017355D02*
X006910Y017662D01*
X006757Y017816D01*
X006603Y017662D01*
X006603Y017355D01*
X006450Y017432D02*
X006373Y017355D01*
X006143Y017355D01*
X006143Y017816D01*
X006373Y017816D01*
X006450Y017739D01*
X006450Y017662D01*
X006373Y017586D01*
X006143Y017586D01*
X006373Y017586D02*
X006450Y017509D01*
X006450Y017432D01*
X006603Y017586D02*
X006910Y017586D01*
X005990Y017279D02*
X005683Y017279D01*
X005529Y017432D02*
X005452Y017355D01*
X005299Y017355D01*
X005222Y017432D01*
X005299Y017586D02*
X005452Y017586D01*
X005529Y017509D01*
X005529Y017432D01*
X005299Y017586D02*
X005222Y017662D01*
X005222Y017739D01*
X005299Y017816D01*
X005452Y017816D01*
X005529Y017739D01*
X005069Y017739D02*
X005069Y017816D01*
X005069Y017739D02*
X004915Y017586D01*
X004915Y017355D01*
X004915Y017586D02*
X004762Y017739D01*
X004762Y017816D01*
X004608Y017739D02*
X004532Y017816D01*
X004378Y017816D01*
X004301Y017739D01*
X004301Y017662D01*
X004378Y017586D01*
X004532Y017586D01*
X004608Y017509D01*
X004608Y017432D01*
X004532Y017355D01*
X004378Y017355D01*
X004301Y017432D01*
X018170Y010330D02*
X018400Y010330D01*
X018477Y010254D01*
X018477Y010100D01*
X018400Y010023D01*
X018170Y010023D01*
X018170Y009870D02*
X018170Y010330D01*
X018630Y010100D02*
X018937Y010100D01*
X018861Y009870D02*
X018861Y010330D01*
X018630Y010100D01*
X018477Y009870D02*
X018323Y010023D01*
X019420Y011520D02*
X019420Y011750D01*
X019496Y011827D01*
X019650Y011827D01*
X019727Y011750D01*
X019727Y011520D01*
X019880Y011520D02*
X019420Y011520D01*
X019727Y011673D02*
X019880Y011827D01*
X019803Y011980D02*
X019650Y011980D01*
X019650Y012211D01*
X019727Y012287D01*
X019803Y012287D01*
X019880Y012211D01*
X019880Y012057D01*
X019803Y011980D01*
X019650Y011980D02*
X019496Y012134D01*
X019420Y012287D01*
X021237Y011860D02*
X021237Y011553D01*
X021313Y011476D01*
X021467Y011476D01*
X021544Y011553D01*
X021544Y011860D01*
X021467Y011937D01*
X021313Y011937D01*
X021237Y011860D01*
X021390Y011630D02*
X021544Y011476D01*
X021697Y011553D02*
X021774Y011476D01*
X021927Y011476D01*
X022004Y011553D01*
X022004Y011630D01*
X021927Y011706D01*
X021850Y011706D01*
X021927Y011706D02*
X022004Y011783D01*
X022004Y011860D01*
X021927Y011937D01*
X021774Y011937D01*
X021697Y011860D01*
X022670Y010330D02*
X022900Y010330D01*
X022977Y010254D01*
X022977Y010100D01*
X022900Y010023D01*
X022670Y010023D01*
X022670Y009870D02*
X022670Y010330D01*
X023130Y010177D02*
X023284Y010330D01*
X023284Y009870D01*
X023437Y009870D02*
X023130Y009870D01*
X022977Y009870D02*
X022823Y010023D01*
X022913Y008137D02*
X022837Y008060D01*
X022837Y007753D01*
X022913Y007676D01*
X023067Y007676D01*
X023144Y007753D01*
X023144Y008060D01*
X023067Y008137D01*
X022913Y008137D01*
X022990Y007830D02*
X023144Y007676D01*
X023297Y007676D02*
X023604Y007676D01*
X023450Y007676D02*
X023450Y008137D01*
X023297Y007983D01*
X024470Y007940D02*
X024470Y007786D01*
X024546Y007710D01*
X024546Y007556D02*
X024700Y007556D01*
X024777Y007479D01*
X024777Y007249D01*
X024930Y007249D02*
X024470Y007249D01*
X024470Y007479D01*
X024546Y007556D01*
X024777Y007403D02*
X024930Y007556D01*
X024930Y007710D02*
X024623Y008017D01*
X024546Y008017D01*
X024470Y007940D01*
X024930Y008017D02*
X024930Y007710D01*
X020830Y007786D02*
X020753Y007710D01*
X020830Y007786D02*
X020830Y007940D01*
X020753Y008017D01*
X020677Y008017D01*
X020600Y007940D01*
X020600Y007863D01*
X020600Y007940D02*
X020523Y008017D01*
X020446Y008017D01*
X020370Y007940D01*
X020370Y007786D01*
X020446Y007710D01*
X020446Y007556D02*
X020600Y007556D01*
X020677Y007479D01*
X020677Y007249D01*
X020830Y007249D02*
X020370Y007249D01*
X020370Y007479D01*
X020446Y007556D01*
X020677Y007403D02*
X020830Y007556D01*
X019104Y007676D02*
X018797Y007676D01*
X019104Y007983D01*
X019104Y008060D01*
X019027Y008137D01*
X018874Y008137D01*
X018797Y008060D01*
X018644Y008060D02*
X018644Y007753D01*
X018567Y007676D01*
X018413Y007676D01*
X018337Y007753D01*
X018337Y008060D01*
X018413Y008137D01*
X018567Y008137D01*
X018644Y008060D01*
X018490Y007830D02*
X018644Y007676D01*
X021896Y004017D02*
X021820Y003940D01*
X021820Y003786D01*
X021896Y003710D01*
X021973Y003710D01*
X022050Y003786D01*
X022050Y003940D01*
X022127Y004017D01*
X022203Y004017D01*
X022280Y003940D01*
X022280Y003786D01*
X022203Y003710D01*
X022050Y003556D02*
X022127Y003479D01*
X022127Y003249D01*
X022280Y003249D02*
X021820Y003249D01*
X021820Y003479D01*
X021896Y003556D01*
X022050Y003556D01*
X022050Y003096D02*
X022050Y002942D01*
X022050Y003096D02*
X022203Y003096D01*
X022280Y003019D01*
X022280Y002866D01*
X022203Y002789D01*
X021896Y002789D01*
X021820Y002866D01*
X021820Y003019D01*
X021896Y003096D01*
X015280Y003136D02*
X015203Y003060D01*
X015280Y003136D02*
X015280Y003290D01*
X015203Y003367D01*
X015050Y003367D01*
X014973Y003290D01*
X014973Y003213D01*
X015050Y003060D01*
X014820Y003060D01*
X014820Y003367D01*
X014973Y002906D02*
X015280Y002906D01*
X015050Y002906D02*
X015050Y002599D01*
X014973Y002599D02*
X014820Y002753D01*
X014973Y002906D01*
X014973Y002599D02*
X015280Y002599D01*
X011280Y002599D02*
X010973Y002599D01*
X010820Y002753D01*
X010973Y002906D01*
X011280Y002906D01*
X011203Y003060D02*
X011280Y003136D01*
X011280Y003290D01*
X011203Y003367D01*
X011127Y003367D01*
X011050Y003290D01*
X011050Y003060D01*
X011203Y003060D01*
X011050Y003060D02*
X010896Y003213D01*
X010820Y003367D01*
X011050Y002906D02*
X011050Y002599D01*
X007280Y002599D02*
X006973Y002599D01*
X006820Y002753D01*
X006973Y002906D01*
X007280Y002906D01*
X007280Y003060D02*
X007203Y003060D01*
X006896Y003367D01*
X006820Y003367D01*
X006820Y003060D01*
X007050Y002906D02*
X007050Y002599D01*
X021170Y014470D02*
X021170Y014930D01*
X021400Y014930D01*
X021477Y014854D01*
X021477Y014700D01*
X021400Y014623D01*
X021170Y014623D01*
X021323Y014623D02*
X021477Y014470D01*
X021630Y014547D02*
X021707Y014470D01*
X021861Y014470D01*
X021937Y014547D01*
X021937Y014700D01*
X021861Y014777D01*
X021784Y014777D01*
X021630Y014700D01*
X021630Y014930D01*
X021937Y014930D01*
D18*
X020762Y019078D02*
X021707Y020022D01*
X019738Y020022D02*
X018789Y019074D01*
X014707Y020022D02*
X013762Y019078D01*
X012738Y020022D02*
X011789Y019074D01*
X007707Y020022D02*
X006762Y019078D01*
X005738Y020022D02*
X004789Y019074D01*
D19*
X021148Y012980D02*
X021148Y012350D01*
X022289Y012350D01*
X022289Y012980D01*
X021148Y012980D01*
X022648Y009180D02*
X023789Y009180D01*
X023789Y008550D01*
X022648Y008550D01*
X022648Y009180D01*
X019289Y009180D02*
X019289Y008550D01*
X018148Y008550D01*
X018148Y009180D01*
X019289Y009180D01*
M02*
